<mxfile host="Electron" agent="Mozilla/5.0 (Windows NT 10.0; Win64; x64) AppleWebKit/537.36 (KHTML, like Gecko) draw.io/26.1.1 Chrome/132.0.6834.210 Electron/34.3.3 Safari/537.36" version="26.1.1">
  <diagram name="Page-1" id="c7488fd3-1785-93aa-aadb-54a6760d102a">
    <mxGraphModel dx="1036" dy="702" grid="1" gridSize="10" guides="1" tooltips="1" connect="1" arrows="1" fold="1" page="1" pageScale="1" pageWidth="1100" pageHeight="850" background="none" math="0" shadow="0">
      <root>
        <mxCell id="0" />
        <mxCell id="1" parent="0" />
        <mxCell id="2b4e8129b02d487f-1" value="Sistema veterinario" style="swimlane;html=1;childLayout=stackLayout;horizontal=1;startSize=20;horizontalStack=0;rounded=0;shadow=0;labelBackgroundColor=none;strokeWidth=1;fontFamily=Verdana;fontSize=8;align=center;fillColor=#fff2cc;strokeColor=#d6b656;" parent="1" vertex="1">
          <mxGeometry x="60" y="60" width="870" height="510" as="geometry" />
        </mxCell>
        <mxCell id="2b4e8129b02d487f-2" value="&amp;nbsp; &amp;nbsp; &amp;nbsp; &amp;nbsp; &amp;nbsp; &amp;nbsp; &amp;nbsp; &amp;nbsp; &amp;nbsp; &amp;nbsp; &amp;nbsp;Registrarse" style="swimlane;html=1;startSize=20;horizontal=0;fillColor=#d5e8d4;strokeColor=#82b366;" parent="2b4e8129b02d487f-1" vertex="1">
          <mxGeometry y="20" width="870" height="340" as="geometry" />
        </mxCell>
        <mxCell id="2b4e8129b02d487f-5" value="Cliente" style="ellipse;whiteSpace=wrap;html=1;rounded=0;shadow=0;labelBackgroundColor=none;strokeWidth=1;fontFamily=Verdana;fontSize=8;align=center;fillColor=#fff2cc;strokeColor=#d6b656;" parent="2b4e8129b02d487f-2" vertex="1">
          <mxGeometry x="45" y="10" width="50" height="30" as="geometry" />
        </mxCell>
        <mxCell id="6du2Ax7VDUOsA6lEuwNt-56" style="edgeStyle=orthogonalEdgeStyle;rounded=0;orthogonalLoop=1;jettySize=auto;html=1;entryX=0;entryY=0.75;entryDx=0;entryDy=0;" parent="2b4e8129b02d487f-2" source="2b4e8129b02d487f-7" target="pg7OoN9-2zW-u2A9ubbK-5" edge="1">
          <mxGeometry relative="1" as="geometry">
            <mxPoint x="360" y="71.5" as="targetPoint" />
          </mxGeometry>
        </mxCell>
        <mxCell id="2b4e8129b02d487f-7" value="Solicitar turno" style="rounded=1;whiteSpace=wrap;html=1;shadow=0;labelBackgroundColor=none;strokeWidth=1;fontFamily=Verdana;fontSize=8;align=center;" parent="2b4e8129b02d487f-2" vertex="1">
          <mxGeometry x="340" y="30" width="110" height="30" as="geometry" />
        </mxCell>
        <mxCell id="2b4e8129b02d487f-3" value="Turnos" style="swimlane;html=1;startSize=20;horizontal=0;fillColor=#dae8fc;strokeColor=#6c8ebf;" parent="2b4e8129b02d487f-2" vertex="1">
          <mxGeometry y="190" width="750" height="150" as="geometry" />
        </mxCell>
        <mxCell id="2b4e8129b02d487f-13" value="Tenes turno?" style="strokeWidth=1;html=1;shape=mxgraph.flowchart.decision;whiteSpace=wrap;rounded=1;shadow=0;labelBackgroundColor=none;fontFamily=Verdana;fontSize=8;align=center;" parent="2b4e8129b02d487f-3" vertex="1">
          <mxGeometry x="65" y="95" width="80" height="80" as="geometry" />
        </mxCell>
        <mxCell id="Vfh_fgffhRc7RA--ZOdc-9" value="Base de datos&amp;nbsp;" style="strokeWidth=2;html=1;shape=mxgraph.flowchart.database;whiteSpace=wrap;" parent="2b4e8129b02d487f-3" vertex="1">
          <mxGeometry x="345" y="60" width="60" height="80" as="geometry" />
        </mxCell>
        <mxCell id="2b4e8129b02d487f-6" value="Turnos" style="rounded=1;whiteSpace=wrap;html=1;shadow=0;labelBackgroundColor=none;strokeWidth=1;fontFamily=Verdana;fontSize=8;align=center;" parent="2b4e8129b02d487f-3" vertex="1">
          <mxGeometry x="70" y="22.99999999999997" width="70" height="37" as="geometry" />
        </mxCell>
        <mxCell id="pg7OoN9-2zW-u2A9ubbK-8" value="Turno no disponible" style="html=1;dashed=0;whiteSpace=wrap;" parent="2b4e8129b02d487f-3" vertex="1">
          <mxGeometry x="580" y="75" width="100" height="50" as="geometry" />
        </mxCell>
        <mxCell id="pg7OoN9-2zW-u2A9ubbK-18" style="edgeStyle=orthogonalEdgeStyle;rounded=0;orthogonalLoop=1;jettySize=auto;html=1;entryX=0.5;entryY=0;entryDx=0;entryDy=0;entryPerimeter=0;" parent="2b4e8129b02d487f-3" source="2b4e8129b02d487f-6" target="2b4e8129b02d487f-13" edge="1">
          <mxGeometry relative="1" as="geometry" />
        </mxCell>
        <mxCell id="pg7OoN9-2zW-u2A9ubbK-46" value="Base de datos" style="strokeWidth=2;html=1;shape=mxgraph.flowchart.database;whiteSpace=wrap;" parent="2b4e8129b02d487f-3" vertex="1">
          <mxGeometry x="210" y="37.5" width="60" height="75" as="geometry" />
        </mxCell>
        <mxCell id="2b4e8129b02d487f-25" value="" style="edgeStyle=orthogonalEdgeStyle;rounded=0;html=1;labelBackgroundColor=none;startArrow=none;startFill=0;startSize=5;endArrow=classicThin;endFill=1;endSize=5;jettySize=auto;orthogonalLoop=1;strokeWidth=1;fontFamily=Verdana;fontSize=8" parent="2b4e8129b02d487f-2" source="2b4e8129b02d487f-13" target="2b4e8129b02d487f-7" edge="1">
          <mxGeometry x="0.7143" y="-10" relative="1" as="geometry">
            <mxPoint as="offset" />
            <Array as="points">
              <mxPoint x="310" y="330" />
              <mxPoint x="310" y="45" />
            </Array>
          </mxGeometry>
        </mxCell>
        <mxCell id="6du2Ax7VDUOsA6lEuwNt-14" value="NO" style="edgeLabel;html=1;align=center;verticalAlign=middle;resizable=0;points=[];" parent="2b4e8129b02d487f-25" vertex="1" connectable="0">
          <mxGeometry x="-0.2286" relative="1" as="geometry">
            <mxPoint as="offset" />
          </mxGeometry>
        </mxCell>
        <mxCell id="Vfh_fgffhRc7RA--ZOdc-2" value="" style="edgeStyle=orthogonalEdgeStyle;rounded=0;orthogonalLoop=1;jettySize=auto;html=1;exitX=1;exitY=0.75;exitDx=0;exitDy=0;" parent="2b4e8129b02d487f-2" source="pg7OoN9-2zW-u2A9ubbK-5" target="Vfh_fgffhRc7RA--ZOdc-1" edge="1">
          <mxGeometry relative="1" as="geometry">
            <mxPoint x="510" y="71.5" as="sourcePoint" />
          </mxGeometry>
        </mxCell>
        <mxCell id="Vfh_fgffhRc7RA--ZOdc-6" style="edgeStyle=orthogonalEdgeStyle;rounded=0;orthogonalLoop=1;jettySize=auto;html=1;" parent="2b4e8129b02d487f-2" source="Vfh_fgffhRc7RA--ZOdc-1" target="Vfh_fgffhRc7RA--ZOdc-5" edge="1">
          <mxGeometry relative="1" as="geometry" />
        </mxCell>
        <mxCell id="Vfh_fgffhRc7RA--ZOdc-7" value="SI" style="edgeLabel;html=1;align=center;verticalAlign=middle;resizable=0;points=[];" parent="Vfh_fgffhRc7RA--ZOdc-6" vertex="1" connectable="0">
          <mxGeometry x="-0.25" relative="1" as="geometry">
            <mxPoint as="offset" />
          </mxGeometry>
        </mxCell>
        <mxCell id="pg7OoN9-2zW-u2A9ubbK-35" style="edgeStyle=orthogonalEdgeStyle;rounded=0;orthogonalLoop=1;jettySize=auto;html=1;entryX=0.5;entryY=1;entryDx=0;entryDy=0;" parent="2b4e8129b02d487f-2" source="Vfh_fgffhRc7RA--ZOdc-1" target="pg7OoN9-2zW-u2A9ubbK-5" edge="1">
          <mxGeometry relative="1" as="geometry">
            <Array as="points">
              <mxPoint x="550" y="80" />
            </Array>
          </mxGeometry>
        </mxCell>
        <mxCell id="pg7OoN9-2zW-u2A9ubbK-36" value="NO" style="edgeLabel;html=1;align=center;verticalAlign=middle;resizable=0;points=[];" parent="pg7OoN9-2zW-u2A9ubbK-35" vertex="1" connectable="0">
          <mxGeometry x="-0.1566" y="2" relative="1" as="geometry">
            <mxPoint as="offset" />
          </mxGeometry>
        </mxCell>
        <mxCell id="Vfh_fgffhRc7RA--ZOdc-1" value="Reservar" style="rhombus;whiteSpace=wrap;html=1;" parent="2b4e8129b02d487f-2" vertex="1">
          <mxGeometry x="670" y="10" width="130" height="100" as="geometry" />
        </mxCell>
        <mxCell id="Vfh_fgffhRc7RA--ZOdc-8" style="edgeStyle=orthogonalEdgeStyle;rounded=0;orthogonalLoop=1;jettySize=auto;html=1;entryX=1;entryY=0.5;entryDx=0;entryDy=0;" parent="2b4e8129b02d487f-2" source="Vfh_fgffhRc7RA--ZOdc-5" edge="1">
          <mxGeometry relative="1" as="geometry">
            <mxPoint x="537" y="177.375" as="targetPoint" />
          </mxGeometry>
        </mxCell>
        <mxCell id="Vfh_fgffhRc7RA--ZOdc-5" value="Seleccionar turno disponible" style="html=1;dashed=0;whiteSpace=wrap;" parent="2b4e8129b02d487f-2" vertex="1">
          <mxGeometry x="690" y="145" width="100" height="50" as="geometry" />
        </mxCell>
        <mxCell id="pg7OoN9-2zW-u2A9ubbK-4" style="edgeStyle=orthogonalEdgeStyle;rounded=0;orthogonalLoop=1;jettySize=auto;html=1;entryX=0.5;entryY=0;entryDx=0;entryDy=0;" parent="2b4e8129b02d487f-2" source="pg7OoN9-2zW-u2A9ubbK-2" target="2b4e8129b02d487f-6" edge="1">
          <mxGeometry relative="1" as="geometry" />
        </mxCell>
        <mxCell id="pg7OoN9-2zW-u2A9ubbK-2" value="Iniciar sesion" style="html=1;dashed=0;whiteSpace=wrap;" parent="2b4e8129b02d487f-2" vertex="1">
          <mxGeometry x="30" y="160" width="90" height="30" as="geometry" />
        </mxCell>
        <mxCell id="pg7OoN9-2zW-u2A9ubbK-5" value="Especialidad?" style="html=1;dashed=0;whiteSpace=wrap;" parent="2b4e8129b02d487f-2" vertex="1">
          <mxGeometry x="500" y="10" width="100" height="50" as="geometry" />
        </mxCell>
        <mxCell id="pg7OoN9-2zW-u2A9ubbK-38" style="edgeStyle=orthogonalEdgeStyle;rounded=0;orthogonalLoop=1;jettySize=auto;html=1;entryX=0.25;entryY=1;entryDx=0;entryDy=0;" parent="2b4e8129b02d487f-2" source="pg7OoN9-2zW-u2A9ubbK-24" target="pg7OoN9-2zW-u2A9ubbK-37" edge="1">
          <mxGeometry relative="1" as="geometry" />
        </mxCell>
        <mxCell id="pg7OoN9-2zW-u2A9ubbK-24" value="Esta registrado?" style="strokeWidth=2;html=1;shape=mxgraph.flowchart.decision;whiteSpace=wrap;" parent="2b4e8129b02d487f-2" vertex="1">
          <mxGeometry x="20" y="70" width="100" height="60" as="geometry" />
        </mxCell>
        <mxCell id="pg7OoN9-2zW-u2A9ubbK-25" style="edgeStyle=orthogonalEdgeStyle;rounded=0;orthogonalLoop=1;jettySize=auto;html=1;entryX=0.5;entryY=0;entryDx=0;entryDy=0;entryPerimeter=0;" parent="2b4e8129b02d487f-2" source="2b4e8129b02d487f-5" target="pg7OoN9-2zW-u2A9ubbK-24" edge="1">
          <mxGeometry relative="1" as="geometry" />
        </mxCell>
        <mxCell id="pg7OoN9-2zW-u2A9ubbK-26" style="edgeStyle=orthogonalEdgeStyle;rounded=0;orthogonalLoop=1;jettySize=auto;html=1;entryX=0.141;entryY=0.022;entryDx=0;entryDy=0;entryPerimeter=0;" parent="2b4e8129b02d487f-2" source="pg7OoN9-2zW-u2A9ubbK-24" target="pg7OoN9-2zW-u2A9ubbK-2" edge="1">
          <mxGeometry relative="1" as="geometry" />
        </mxCell>
        <mxCell id="pg7OoN9-2zW-u2A9ubbK-27" value="SI" style="edgeLabel;html=1;align=center;verticalAlign=middle;resizable=0;points=[];" parent="pg7OoN9-2zW-u2A9ubbK-26" vertex="1" connectable="0">
          <mxGeometry x="-0.2806" y="-2" relative="1" as="geometry">
            <mxPoint as="offset" />
          </mxGeometry>
        </mxCell>
        <mxCell id="pg7OoN9-2zW-u2A9ubbK-29" style="edgeStyle=orthogonalEdgeStyle;rounded=0;orthogonalLoop=1;jettySize=auto;html=1;entryX=0.427;entryY=1.027;entryDx=0;entryDy=0;entryPerimeter=0;" parent="2b4e8129b02d487f-2" source="pg7OoN9-2zW-u2A9ubbK-8" target="Vfh_fgffhRc7RA--ZOdc-5" edge="1">
          <mxGeometry relative="1" as="geometry" />
        </mxCell>
        <mxCell id="pg7OoN9-2zW-u2A9ubbK-43" style="edgeStyle=orthogonalEdgeStyle;rounded=0;orthogonalLoop=1;jettySize=auto;html=1;" parent="2b4e8129b02d487f-2" source="pg7OoN9-2zW-u2A9ubbK-37" edge="1">
          <mxGeometry relative="1" as="geometry">
            <mxPoint x="250" y="70" as="targetPoint" />
          </mxGeometry>
        </mxCell>
        <mxCell id="pg7OoN9-2zW-u2A9ubbK-37" value="Registrase" style="html=1;dashed=0;whiteSpace=wrap;" parent="2b4e8129b02d487f-2" vertex="1">
          <mxGeometry x="130" y="30" width="70" height="20" as="geometry" />
        </mxCell>
        <mxCell id="pg7OoN9-2zW-u2A9ubbK-45" style="edgeStyle=orthogonalEdgeStyle;rounded=0;orthogonalLoop=1;jettySize=auto;html=1;entryX=0.5;entryY=0;entryDx=0;entryDy=0;" parent="2b4e8129b02d487f-2" source="pg7OoN9-2zW-u2A9ubbK-40" target="pg7OoN9-2zW-u2A9ubbK-44" edge="1">
          <mxGeometry relative="1" as="geometry" />
        </mxCell>
        <mxCell id="pg7OoN9-2zW-u2A9ubbK-40" value="Completar formulario de registro" style="html=1;dashed=0;whiteSpace=wrap;" parent="2b4e8129b02d487f-2" vertex="1">
          <mxGeometry x="190" y="75" width="100" height="50" as="geometry" />
        </mxCell>
        <mxCell id="pg7OoN9-2zW-u2A9ubbK-44" value="Validar datos" style="html=1;dashed=0;whiteSpace=wrap;" parent="2b4e8129b02d487f-2" vertex="1">
          <mxGeometry x="195" y="160" width="90" height="30" as="geometry" />
        </mxCell>
        <mxCell id="pg7OoN9-2zW-u2A9ubbK-48" style="edgeStyle=orthogonalEdgeStyle;rounded=0;orthogonalLoop=1;jettySize=auto;html=1;entryX=0.5;entryY=0;entryDx=0;entryDy=0;entryPerimeter=0;" parent="2b4e8129b02d487f-2" source="pg7OoN9-2zW-u2A9ubbK-44" target="pg7OoN9-2zW-u2A9ubbK-46" edge="1">
          <mxGeometry relative="1" as="geometry" />
        </mxCell>
        <mxCell id="pg7OoN9-2zW-u2A9ubbK-6" value="Turno disponible?" style="strokeWidth=2;html=1;shape=mxgraph.flowchart.decision;whiteSpace=wrap;" parent="2b4e8129b02d487f-2" vertex="1">
          <mxGeometry x="440" y="125" width="100" height="100" as="geometry" />
        </mxCell>
        <mxCell id="pg7OoN9-2zW-u2A9ubbK-15" style="edgeStyle=orthogonalEdgeStyle;rounded=0;orthogonalLoop=1;jettySize=auto;html=1;entryX=1;entryY=0.5;entryDx=0;entryDy=0;" parent="2b4e8129b02d487f-2" source="pg7OoN9-2zW-u2A9ubbK-6" target="pg7OoN9-2zW-u2A9ubbK-14" edge="1">
          <mxGeometry relative="1" as="geometry" />
        </mxCell>
        <mxCell id="pg7OoN9-2zW-u2A9ubbK-16" value="SI" style="edgeLabel;html=1;align=center;verticalAlign=middle;resizable=0;points=[];" parent="pg7OoN9-2zW-u2A9ubbK-15" vertex="1" connectable="0">
          <mxGeometry x="0.1692" y="-4" relative="1" as="geometry">
            <mxPoint as="offset" />
          </mxGeometry>
        </mxCell>
        <mxCell id="pg7OoN9-2zW-u2A9ubbK-30" style="edgeStyle=orthogonalEdgeStyle;rounded=0;orthogonalLoop=1;jettySize=auto;html=1;entryX=0;entryY=0.75;entryDx=0;entryDy=0;" parent="2b4e8129b02d487f-2" source="pg7OoN9-2zW-u2A9ubbK-6" target="pg7OoN9-2zW-u2A9ubbK-8" edge="1">
          <mxGeometry relative="1" as="geometry" />
        </mxCell>
        <mxCell id="pg7OoN9-2zW-u2A9ubbK-31" value="NO" style="edgeLabel;html=1;align=center;verticalAlign=middle;resizable=0;points=[];" parent="pg7OoN9-2zW-u2A9ubbK-30" vertex="1" connectable="0">
          <mxGeometry x="-0.4043" y="2" relative="1" as="geometry">
            <mxPoint as="offset" />
          </mxGeometry>
        </mxCell>
        <mxCell id="pg7OoN9-2zW-u2A9ubbK-14" value="Consulta a la base de datos" style="html=1;dashed=0;whiteSpace=wrap;" parent="2b4e8129b02d487f-2" vertex="1">
          <mxGeometry x="325" y="140" width="100" height="50" as="geometry" />
        </mxCell>
        <mxCell id="pg7OoN9-2zW-u2A9ubbK-17" style="edgeStyle=orthogonalEdgeStyle;rounded=0;orthogonalLoop=1;jettySize=auto;html=1;entryX=0.328;entryY=0.025;entryDx=0;entryDy=0;entryPerimeter=0;" parent="2b4e8129b02d487f-2" source="pg7OoN9-2zW-u2A9ubbK-14" target="Vfh_fgffhRc7RA--ZOdc-9" edge="1">
          <mxGeometry relative="1" as="geometry" />
        </mxCell>
        <mxCell id="2b4e8129b02d487f-4" value="Validacion" style="swimlane;html=1;startSize=20;horizontal=0;fillColor=#e1d5e7;strokeColor=#9673a6;" parent="2b4e8129b02d487f-1" vertex="1">
          <mxGeometry y="360" width="870" height="150" as="geometry" />
        </mxCell>
        <mxCell id="6du2Ax7VDUOsA6lEuwNt-40" value="" style="edgeStyle=orthogonalEdgeStyle;rounded=0;orthogonalLoop=1;jettySize=auto;html=1;" parent="2b4e8129b02d487f-4" source="2b4e8129b02d487f-15" target="6du2Ax7VDUOsA6lEuwNt-39" edge="1">
          <mxGeometry relative="1" as="geometry" />
        </mxCell>
        <mxCell id="6du2Ax7VDUOsA6lEuwNt-41" value="SI" style="edgeLabel;html=1;align=center;verticalAlign=middle;resizable=0;points=[];" parent="6du2Ax7VDUOsA6lEuwNt-40" vertex="1" connectable="0">
          <mxGeometry x="-0.04" y="-3" relative="1" as="geometry">
            <mxPoint as="offset" />
          </mxGeometry>
        </mxCell>
        <mxCell id="2b4e8129b02d487f-15" value="Resultado de verificaion?" style="strokeWidth=1;html=1;shape=mxgraph.flowchart.decision;whiteSpace=wrap;rounded=1;shadow=0;labelBackgroundColor=none;fontFamily=Verdana;fontSize=8;align=center;" parent="2b4e8129b02d487f-4" vertex="1">
          <mxGeometry x="280" y="54.75" width="70" height="70.5" as="geometry" />
        </mxCell>
        <mxCell id="6du2Ax7VDUOsA6lEuwNt-15" value="Consultar" style="whiteSpace=wrap;html=1;fontSize=8;fontFamily=Verdana;strokeWidth=1;rounded=1;shadow=0;labelBackgroundColor=none;" parent="2b4e8129b02d487f-4" vertex="1">
          <mxGeometry x="50" y="93.5" width="90" height="25" as="geometry" />
        </mxCell>
        <mxCell id="6du2Ax7VDUOsA6lEuwNt-39" value="Registrado" style="ellipse;whiteSpace=wrap;html=1;fontSize=8;fontFamily=Verdana;strokeWidth=1;rounded=1;shadow=0;labelBackgroundColor=none;" parent="2b4e8129b02d487f-4" vertex="1">
          <mxGeometry x="390" y="61.75" width="65" height="56.5" as="geometry" />
        </mxCell>
        <mxCell id="6du2Ax7VDUOsA6lEuwNt-30" value="Base de datos" style="shape=cylinder3;whiteSpace=wrap;html=1;boundedLbl=1;backgroundOutline=1;size=15;" parent="2b4e8129b02d487f-4" vertex="1">
          <mxGeometry x="180" y="55.25" width="60" height="70" as="geometry" />
        </mxCell>
        <mxCell id="6du2Ax7VDUOsA6lEuwNt-43" style="edgeStyle=orthogonalEdgeStyle;rounded=0;orthogonalLoop=1;jettySize=auto;html=1;entryX=0;entryY=0;entryDx=0;entryDy=45;entryPerimeter=0;" parent="2b4e8129b02d487f-4" source="6du2Ax7VDUOsA6lEuwNt-15" target="6du2Ax7VDUOsA6lEuwNt-30" edge="1">
          <mxGeometry relative="1" as="geometry" />
        </mxCell>
        <mxCell id="6du2Ax7VDUOsA6lEuwNt-44" style="edgeStyle=orthogonalEdgeStyle;rounded=0;orthogonalLoop=1;jettySize=auto;html=1;entryX=0;entryY=0.5;entryDx=0;entryDy=0;entryPerimeter=0;" parent="2b4e8129b02d487f-4" source="6du2Ax7VDUOsA6lEuwNt-30" target="2b4e8129b02d487f-15" edge="1">
          <mxGeometry relative="1" as="geometry" />
        </mxCell>
        <mxCell id="pg7OoN9-2zW-u2A9ubbK-23" style="edgeStyle=orthogonalEdgeStyle;rounded=0;orthogonalLoop=1;jettySize=auto;html=1;" parent="2b4e8129b02d487f-4" source="pg7OoN9-2zW-u2A9ubbK-19" target="pg7OoN9-2zW-u2A9ubbK-22" edge="1">
          <mxGeometry relative="1" as="geometry" />
        </mxCell>
        <mxCell id="pg7OoN9-2zW-u2A9ubbK-19" value="Enviar email de confirmacion" style="html=1;dashed=0;whiteSpace=wrap;" parent="2b4e8129b02d487f-4" vertex="1">
          <mxGeometry x="510" y="43.5" width="100" height="50" as="geometry" />
        </mxCell>
        <mxCell id="pg7OoN9-2zW-u2A9ubbK-22" value="FIN" style="strokeWidth=2;html=1;shape=mxgraph.flowchart.start_1;whiteSpace=wrap;" parent="2b4e8129b02d487f-4" vertex="1">
          <mxGeometry x="650" y="47.75" width="100" height="41.5" as="geometry" />
        </mxCell>
        <mxCell id="6du2Ax7VDUOsA6lEuwNt-16" value="" style="edgeStyle=orthogonalEdgeStyle;rounded=0;orthogonalLoop=1;jettySize=auto;html=1;" parent="2b4e8129b02d487f-1" source="2b4e8129b02d487f-13" target="6du2Ax7VDUOsA6lEuwNt-15" edge="1">
          <mxGeometry relative="1" as="geometry">
            <Array as="points">
              <mxPoint x="140" y="323" />
            </Array>
          </mxGeometry>
        </mxCell>
        <mxCell id="6du2Ax7VDUOsA6lEuwNt-17" value="SI" style="edgeLabel;html=1;align=center;verticalAlign=middle;resizable=0;points=[];" parent="6du2Ax7VDUOsA6lEuwNt-16" vertex="1" connectable="0">
          <mxGeometry x="-0.0054" y="3" relative="1" as="geometry">
            <mxPoint as="offset" />
          </mxGeometry>
        </mxCell>
        <mxCell id="6du2Ax7VDUOsA6lEuwNt-48" style="edgeStyle=orthogonalEdgeStyle;rounded=0;orthogonalLoop=1;jettySize=auto;html=1;entryX=0.75;entryY=1;entryDx=0;entryDy=0;" parent="2b4e8129b02d487f-1" source="2b4e8129b02d487f-15" target="2b4e8129b02d487f-7" edge="1">
          <mxGeometry relative="1" as="geometry">
            <Array as="points">
              <mxPoint x="300" y="370" />
              <mxPoint x="330" y="370" />
              <mxPoint x="330" y="110" />
              <mxPoint x="423" y="110" />
            </Array>
          </mxGeometry>
        </mxCell>
        <mxCell id="6du2Ax7VDUOsA6lEuwNt-49" value="NO" style="edgeLabel;html=1;align=center;verticalAlign=middle;resizable=0;points=[];" parent="6du2Ax7VDUOsA6lEuwNt-48" vertex="1" connectable="0">
          <mxGeometry x="-0.8961" relative="1" as="geometry">
            <mxPoint as="offset" />
          </mxGeometry>
        </mxCell>
        <mxCell id="pg7OoN9-2zW-u2A9ubbK-21" style="edgeStyle=orthogonalEdgeStyle;rounded=0;orthogonalLoop=1;jettySize=auto;html=1;entryX=0;entryY=0.25;entryDx=0;entryDy=0;" parent="2b4e8129b02d487f-1" source="Vfh_fgffhRc7RA--ZOdc-9" target="pg7OoN9-2zW-u2A9ubbK-19" edge="1">
          <mxGeometry relative="1" as="geometry" />
        </mxCell>
        <mxCell id="pg7OoN9-2zW-u2A9ubbK-39" value="NO" style="text;html=1;align=center;verticalAlign=middle;resizable=0;points=[];autosize=1;strokeColor=none;fillColor=none;" parent="1" vertex="1">
          <mxGeometry x="190" y="148" width="40" height="30" as="geometry" />
        </mxCell>
      </root>
    </mxGraphModel>
  </diagram>
</mxfile>
